ply
format ascii 1.0
comment Created by Blender 2.56 (sub 0) - www.blender.org, source file: 'br-arrows.blend'
element vertex 22
property float x
property float y
property float z
property float nx
property float ny
property float nz
element face 15
property list uchar uint vertex_indices
end_header
1.000872 1.555889 1.341978 1.000000 -0.000000 0.000000 
1.000872 1.555889 1.419930 1.000000 -0.000000 0.000000 
1.000872 1.500889 1.341978 1.000000 -0.000000 0.000000 
1.000872 1.555889 1.497939 1.000000 0.000000 0.000000 
1.000872 1.641970 1.509024 1.000000 0.000000 0.000000 
1.000872 1.641970 1.590500 1.000000 0.000000 0.000000 
1.000872 1.500889 1.667882 1.000000 0.000000 -0.000000 
1.000872 1.500889 1.498906 1.000000 0.000000 -0.000000 
1.000872 1.555889 1.667882 1.000000 0.000000 -0.000000 
1.000872 1.500889 1.419930 1.000000 0.000000 -0.000000 
1.000872 1.410889 1.578906 1.000000 0.000000 0.000000 
1.000872 1.410889 1.499930 1.000000 0.000000 0.000000 
1.000872 1.695889 1.669820 -1.000000 0.000000 0.000000 
1.000872 1.695889 1.591867 -1.000000 0.000000 0.000000 
1.000872 1.640889 1.669820 -1.000000 0.000000 0.000000 
1.000872 1.695889 1.507891 -1.000000 0.000000 0.000000 
1.000872 1.785889 1.501868 -1.000000 0.000000 0.000000 
1.000872 1.785889 1.417892 -1.000000 0.000000 0.000000 
1.000872 1.640890 1.343915 -1.000000 -0.000000 0.000000 
1.000872 1.641970 1.509024 -1.000000 -0.000000 0.000000 
1.000872 1.695889 1.343915 -1.000000 -0.000000 0.000000 
1.000872 1.641970 1.590500 -1.000000 -0.000000 0.000000 
3 0 1 2
4 3 1 4 5
3 6 7 8
3 7 9 3
3 7 3 8
3 1 3 9
3 1 9 2
4 9 7 10 11
3 12 13 14
4 15 13 16 17
3 18 19 20
3 19 21 15
3 19 15 20
3 13 15 21
3 13 21 14
